<svg xmlns="http://www.w3.org/2000/svg" xmlns:xlink="http://www.w3.org/1999/xlink" version="1.1" width="256" height="256" viewBox="0 0 256 256" xml:space="preserve">

<defs>
</defs>
<g style="stroke: none; stroke-width: 0; stroke-dasharray: none; stroke-linecap: butt; stroke-linejoin: miter; stroke-miterlimit: 10; fill: rgb(32,201,151); fill-rule: nonzero; opacity: 1;" transform="translate(0 -2.842170943040401e-14) scale(2.81 2.81)" >
	<circle cx="45" cy="45" r="45" style="stroke: none; stroke-width: 1; stroke-dasharray: none; stroke-linecap: butt; stroke-linejoin: miter; stroke-miterlimit: 10; fill: rgb(32,201,151); fill-rule: nonzero; opacity: 1;" transform="  matrix(1 0 0 1 0 0) "/>
</g>
<g style="stroke: none; stroke-width: 0; stroke-dasharray: none; stroke-linecap: butt; stroke-linejoin: miter; stroke-miterlimit: 10; fill: none; fill-rule: nonzero; opacity: 1;" transform="translate(46.17984832069338 46.17984832069335) scale(1.82 1.82)" >
	<path d="M 57.605 39.515 h -1.049 c -1.386 0 -2.52 -1.134 -2.52 -2.52 V 3.02 c 0 -1.386 1.134 -2.52 2.52 -2.52 h 1.049 c 1.386 0 2.52 1.134 2.52 2.52 v 33.974 C 60.125 38.381 58.991 39.515 57.605 39.515 z" style="stroke: none; stroke-width: 1; stroke-dasharray: none; stroke-linecap: butt; stroke-linejoin: miter; stroke-miterlimit: 10; fill: rgb(255,255,255); fill-rule: nonzero; opacity: 1;" transform=" matrix(1 0 0 1 0 0) " stroke-linecap="round" />
	<path d="M 57.605 39.515 h -1.049 c -1.386 0 -2.52 -1.134 -2.52 -2.52 V 3.02 c 0 -1.386 1.134 -2.52 2.52 -2.52 h 1.049" style="stroke: none; stroke-width: 1; stroke-dasharray: none; stroke-linecap: butt; stroke-linejoin: miter; stroke-miterlimit: 10; fill: rgb(204,204,204); fill-rule: nonzero; opacity: 1;" transform=" matrix(1 0 0 1 0 0) " stroke-linecap="round" />
	<path d="M 57.604 40.015 h -1.048 c -1.665 0 -3.021 -1.355 -3.021 -3.021 V 3.02 c 0 -1.665 1.355 -3.02 3.021 -3.02 h 1.048 c 1.665 0 3.021 1.355 3.021 3.02 v 33.974 C 60.625 38.659 59.269 40.015 57.604 40.015 z M 56.556 1 c -1.114 0 -2.021 0.906 -2.021 2.02 v 33.974 c 0 1.114 0.906 2.021 2.021 2.021 h 1.048 c 1.114 0 2.021 -0.906 2.021 -2.021 V 3.02 c 0 -1.114 -0.906 -2.02 -2.021 -2.02 H 56.556 z" style="stroke: none; stroke-width: 1; stroke-dasharray: none; stroke-linecap: butt; stroke-linejoin: miter; stroke-miterlimit: 10; fill: rgb(40,39,44); fill-rule: nonzero; opacity: 1;" transform=" matrix(1 0 0 1 0 0) " stroke-linecap="round" />
	<path d="M 56.688 89.5 H 33.312 c -3.898 0 -7.087 -3.189 -7.087 -7.087 V 32.853 c 0 -3.898 3.189 -7.087 7.087 -7.087 h 23.376 c 3.898 0 7.087 3.189 7.087 7.087 v 49.561 C 63.774 86.311 60.585 89.5 56.688 89.5 z" style="stroke: none; stroke-width: 1; stroke-dasharray: none; stroke-linecap: butt; stroke-linejoin: miter; stroke-miterlimit: 10; fill: rgb(255,163,4); fill-rule: nonzero; opacity: 1;" transform=" matrix(1 0 0 1 0 0) " stroke-linecap="round" />
	<path d="M 45 89.5 H 33.312 c -3.898 0 -7.087 -3.189 -7.087 -7.087 V 32.853 c 0 -3.898 3.189 -7.087 7.087 -7.087 l 6.541 0 C 38.757 53.27 42.136 72.435 45 89.5 z" style="stroke: none; stroke-width: 1; stroke-dasharray: none; stroke-linecap: butt; stroke-linejoin: miter; stroke-miterlimit: 10; fill: rgb(245,161,15); fill-rule: nonzero; opacity: 1;" transform=" matrix(1 0 0 1 0 0) " stroke-linecap="round" />
	<circle cx="45.004" cy="45.264" r="13.304" style="stroke: none; stroke-width: 1; stroke-dasharray: none; stroke-linecap: butt; stroke-linejoin: miter; stroke-miterlimit: 10; fill: rgb(255,255,255); fill-rule: nonzero; opacity: 1;" transform="  matrix(1 0 0 1 0 0) "/>
	<path d="M 50.717 82.294 H 39.283 c -1.627 0 -2.959 -1.331 -2.959 -2.959 v -1.231 c 0 -1.627 1.331 -2.959 2.959 -2.959 h 11.434 c 1.627 0 2.959 1.331 2.959 2.959 v 1.231 C 53.676 80.962 52.344 82.294 50.717 82.294 z" style="stroke: none; stroke-width: 1; stroke-dasharray: none; stroke-linecap: butt; stroke-linejoin: miter; stroke-miterlimit: 10; fill: rgb(255,255,255); fill-rule: nonzero; opacity: 1;" transform=" matrix(1 0 0 1 0 0) " stroke-linecap="round" />
	<path d="M 45 58.564 c -7.348 0 -13.304 -5.956 -13.304 -13.304 S 37.652 31.956 45 31.956 C 38.156 40.825 38.156 49.694 45 58.564 z" style="stroke: none; stroke-width: 1; stroke-dasharray: none; stroke-linecap: butt; stroke-linejoin: miter; stroke-miterlimit: 10; fill: rgb(204,204,204); fill-rule: nonzero; opacity: 1;" transform=" matrix(1 0 0 1 0 0) " stroke-linecap="round" />
	<path d="M 45 59.064 c -7.611 0 -13.804 -6.192 -13.804 -13.804 c 0 -7.612 6.192 -13.805 13.804 -13.805 c 7.612 0 13.805 6.192 13.805 13.805 C 58.804 52.871 52.612 59.064 45 59.064 z M 45 32.455 c -7.06 0 -12.804 5.744 -12.804 12.805 c 0 7.06 5.744 12.804 12.804 12.804 c 7.061 0 12.805 -5.744 12.805 -12.804 C 57.804 38.199 52.06 32.455 45 32.455 z" style="stroke: none; stroke-width: 1; stroke-dasharray: none; stroke-linecap: butt; stroke-linejoin: miter; stroke-miterlimit: 10; fill: rgb(40,39,44); fill-rule: nonzero; opacity: 1;" transform=" matrix(1 0 0 1 0 0) " stroke-linecap="round" />
	<path d="M 56.688 90 H 33.312 c -4.183 0 -7.586 -3.403 -7.586 -7.587 V 32.853 c 0 -4.184 3.403 -7.587 7.586 -7.587 h 23.376 c 4.183 0 7.586 3.403 7.586 7.587 v 49.561 C 64.274 86.597 60.871 90 56.688 90 z M 33.312 26.266 c -3.632 0 -6.586 2.955 -6.586 6.587 v 49.561 c 0 3.632 2.955 6.587 6.586 6.587 h 23.376 c 3.632 0 6.586 -2.955 6.586 -6.587 V 32.853 c 0 -3.632 -2.954 -6.587 -6.586 -6.587 H 33.312 z" style="stroke: none; stroke-width: 1; stroke-dasharray: none; stroke-linecap: butt; stroke-linejoin: miter; stroke-miterlimit: 10; fill: rgb(40,39,44); fill-rule: nonzero; opacity: 1;" transform=" matrix(1 0 0 1 0 0) " stroke-linecap="round" />
	<path d="M 43.797 82.294 h -4.514 c -1.627 0 -2.959 -1.331 -2.959 -2.959 v -1.231 c 0 -1.627 1.331 -2.959 2.959 -2.959 h 3.39" style="stroke: none; stroke-width: 1; stroke-dasharray: none; stroke-linecap: butt; stroke-linejoin: miter; stroke-miterlimit: 10; fill: rgb(204,204,204); fill-rule: nonzero; opacity: 1;" transform=" matrix(1 0 0 1 0 0) " stroke-linecap="round" />
	<path d="M 50.717 82.794 H 39.283 c -1.907 0 -3.458 -1.552 -3.458 -3.459 v -1.231 c 0 -1.907 1.551 -3.458 3.458 -3.458 h 11.434 c 1.907 0 3.459 1.551 3.459 3.458 v 1.231 C 54.176 81.242 52.624 82.794 50.717 82.794 z M 39.283 75.646 c -1.355 0 -2.458 1.103 -2.458 2.458 v 1.231 c 0 1.355 1.103 2.459 2.458 2.459 h 11.434 c 1.355 0 2.459 -1.104 2.459 -2.459 v -1.231 c 0 -1.355 -1.104 -2.458 -2.459 -2.458 H 39.283 z" style="stroke: none; stroke-width: 1; stroke-dasharray: none; stroke-linecap: butt; stroke-linejoin: miter; stroke-miterlimit: 10; fill: rgb(40,39,44); fill-rule: nonzero; opacity: 1;" transform=" matrix(1 0 0 1 0 0) " stroke-linecap="round" />
	<circle cx="45.002" cy="45.602000000000004" r="1.892" style="stroke: none; stroke-width: 1; stroke-dasharray: none; stroke-linecap: butt; stroke-linejoin: miter; stroke-miterlimit: 10; fill: rgb(204,204,204); fill-rule: nonzero; opacity: 1;" transform="  matrix(1 0 0 1 0 0) "/>
	<circle cx="52.002" cy="45.602000000000004" r="1.892" style="stroke: none; stroke-width: 1; stroke-dasharray: none; stroke-linecap: butt; stroke-linejoin: miter; stroke-miterlimit: 10; fill: rgb(204,204,204); fill-rule: nonzero; opacity: 1;" transform="  matrix(1 0 0 1 0 0) "/>
	<circle cx="48.212" cy="38.602000000000004" r="1.892" style="stroke: none; stroke-width: 1; stroke-dasharray: none; stroke-linecap: butt; stroke-linejoin: miter; stroke-miterlimit: 10; fill: rgb(204,204,204); fill-rule: nonzero; opacity: 1;" transform="  matrix(1 0 0 1 0 0) "/>
	<circle cx="48.212" cy="52.602000000000004" r="1.892" style="stroke: none; stroke-width: 1; stroke-dasharray: none; stroke-linecap: butt; stroke-linejoin: miter; stroke-miterlimit: 10; fill: rgb(204,204,204); fill-rule: nonzero; opacity: 1;" transform="  matrix(1 0 0 1 0 0) "/>
</g>
</svg>